<?xml version="1.0" encoding="utf-8"?><svg width="66" height="15" fill="none" xmlns="http://www.w3.org/2000/svg" viewBox="0 0 66 15"><path d="M.114.643h10.705v13.612H9.01V2.25H1.915v12.005H.114V.643zM13.215 7.626c0-2.26.607-4.027 1.82-5.302C16.248 1.043 17.814.402 19.733.402c1.256 0 2.39.3 3.398.9a5.846 5.846 0 0 1 2.303 2.517c.532 1.07.798 2.287.798 3.649 0 1.38-.278 2.615-.835 3.704-.557 1.09-1.346 1.916-2.368 2.48a6.794 6.794 0 0 1-3.305.835c-1.282 0-2.427-.31-3.436-.928a5.975 5.975 0 0 1-2.293-2.535 7.683 7.683 0 0 1-.78-3.398zm1.857.027c0 1.64.44 2.935 1.318 3.881.886.941 1.994 1.412 3.324 1.412 1.356 0 2.47-.477 3.343-1.43.879-.953 1.318-2.306 1.318-4.058 0-1.108-.188-2.073-.566-2.896-.371-.83-.92-1.47-1.643-1.922-.718-.459-1.526-.688-2.424-.688-1.275 0-2.374.44-3.296 1.319-.916.873-1.374 2.334-1.374 4.382zM29.334.643h8.523v13.612h-1.801V2.25h-4.921v7.01c0 1.423-.068 2.466-.204 3.129-.13.662-.409 1.179-.836 1.55-.427.366-.969.548-1.625.548-.396 0-.873-.074-1.43-.223l.307-1.597c.297.124.55.186.761.186.409 0 .715-.152.92-.455.204-.31.306-1.034.306-2.173V.643zM40.847.643h1.634v10.78L49.723.643h1.811v13.612H49.9V3.503l-7.252 10.752h-1.801V.643zM64.199 9.483L66 9.938c-.378 1.479-1.058 2.609-2.043 3.388-.978.774-2.175 1.161-3.593 1.161-1.467 0-2.662-.297-3.584-.891-.916-.6-1.616-1.467-2.098-2.6a9.312 9.312 0 0 1-.715-3.649c0-1.417.269-2.652.808-3.705.544-1.058 1.315-1.86 2.311-2.405 1.003-.55 2.105-.826 3.306-.826 1.362 0 2.507.347 3.435 1.04.929.693 1.576 1.668 1.94 2.925l-1.773.418c-.315-.99-.773-1.712-1.374-2.164-.6-.452-1.355-.678-2.265-.678-1.046 0-1.922.251-2.628.753-.7.5-1.191 1.176-1.476 2.024a8.087 8.087 0 0 0-.427 2.609c0 1.157.167 2.17.501 3.036.34.86.867 1.504 1.578 1.931.712.427 1.483.64 2.313.64 1.008 0 1.863-.29 2.562-.872.7-.582 1.173-1.445 1.42-2.59z" fill="#fff"/></svg>