<?xml version="1.0" encoding="utf-8"?><svg width="74" height="8" fill="none" xmlns="http://www.w3.org/2000/svg" viewBox="0 0 74 8"><path d="M.538 2.146h.635V5l1.759-2.855h.684V5.89H2.98V3.052L1.222 5.89H.538V2.146zM4.575 2.146h.634v1.558h1.76V2.146h.634V5.89H6.97V4.23h-1.76v1.66h-.634V2.146zM9.063 2.146h2.609v3.222h.405v1.583h-.522V5.89H8.608v1.06h-.522V5.369h.335c.447-.606.66-1.68.642-3.222zm.529.525c-.047 1.215-.235 2.114-.564 2.697h2.013V2.671H9.59zM12.75 7.332l-.07-.596c.139.037.26.056.363.056a.697.697 0 0 0 .339-.07.576.576 0 0 0 .207-.198c.04-.063.105-.22.194-.472l.057-.155-1.42-3.751h.683l.78 2.168c.1.275.19.564.27.867a8.54 8.54 0 0 1 .261-.853l.8-2.182h.635l-1.424 3.807a7.48 7.48 0 0 1-.356.85c-.113.209-.242.362-.388.458a.908.908 0 0 1-.522.148 1.27 1.27 0 0 1-.409-.077zM18.747 4.518l.624.081c-.068.43-.243.768-.525 1.012-.28.242-.624.363-1.033.363-.512 0-.925-.167-1.237-.5-.31-.336-.466-.817-.466-1.442 0-.404.067-.758.201-1.061.134-.304.337-.53.61-.68.275-.154.574-.23.896-.23.406 0 .739.103.997.31.259.205.425.496.497.875l-.616.095c-.06-.252-.164-.44-.314-.568a.8.8 0 0 0-.54-.19c-.32 0-.58.115-.779.345-.2.228-.3.59-.3 1.086 0 .503.097.869.29 1.097a.94.94 0 0 0 .754.342c.25 0 .457-.077.624-.23.167-.152.273-.387.317-.705zM19.572 2.146h3.043v.525h-1.206V5.89h-.631V2.67h-1.206v-.524zM23.221 7.325v-5.18h.578v.487c.137-.19.29-.332.462-.426.172-.097.38-.145.624-.145.32 0 .602.082.846.247.245.164.43.397.554.698.124.298.187.626.187.983 0 .384-.07.73-.208 1.037-.137.306-.336.54-.6.705-.26.162-.536.243-.825.243-.211 0-.401-.044-.57-.134a1.302 1.302 0 0 1-.413-.338v1.823h-.635zm.575-3.286c0 .482.097.838.293 1.068.195.23.43.346.708.346.282 0 .523-.12.723-.357.202-.24.303-.61.303-1.11 0-.477-.099-.834-.296-1.072-.195-.237-.43-.356-.702-.356-.27 0-.51.127-.719.38-.207.252-.31.619-.31 1.1zM27.24 2.146h.635V5l1.76-2.855h.683V5.89h-.635V3.052L27.924 5.89h-.684V2.146zM33.717 5.428c-.235.2-.462.34-.68.423a1.947 1.947 0 0 1-.699.123c-.411 0-.727-.1-.948-.3a1 1 0 0 1-.332-.771 1.055 1.055 0 0 1 .451-.867c.137-.092.29-.162.459-.209.125-.033.313-.064.564-.095.512-.061.89-.134 1.132-.218l.003-.166c0-.259-.06-.44-.18-.547-.162-.143-.403-.215-.722-.215-.299 0-.52.053-.663.159-.141.103-.246.288-.314.553l-.62-.084c.056-.266.149-.48.278-.642.13-.164.316-.29.56-.377a2.47 2.47 0 0 1 .85-.134c.32 0 .58.038.78.113.2.075.346.17.44.285.094.113.16.257.198.43.02.109.031.304.031.586v.846c0 .59.013.964.04 1.121.027.155.081.304.161.448h-.663a1.346 1.346 0 0 1-.126-.462zm-.053-1.417c-.23.094-.576.174-1.037.24-.26.037-.445.08-.553.126a.548.548 0 0 0-.339.508c0 .17.064.31.19.423.13.113.318.17.565.17.244 0 .462-.054.652-.16a.998.998 0 0 0 .42-.44c.068-.143.102-.355.102-.635v-.232zM35.603 2.146h2.947V5.89h-.631V2.67h-1.682v1.866c0 .435-.014.721-.042.86a.625.625 0 0 1-.233.363c-.127.104-.31.155-.55.155-.148 0-.318-.009-.51-.028v-.529h.278a.734.734 0 0 0 .282-.038.214.214 0 0 0 .113-.13c.018-.06.028-.251.028-.575V2.146zM39.498 2.146h.635v1.463h.804c.524 0 .927.102 1.21.306a.973.973 0 0 1 .426.84c0 .312-.119.58-.356.803-.235.221-.613.332-1.132.332h-1.587V2.146zm.635 3.222h.666c.402 0 .689-.05.86-.148a.496.496 0 0 0 .258-.462.597.597 0 0 0-.19-.434c-.127-.127-.408-.19-.843-.19h-.751v1.234zM43.278 2.146h.634v1.558h1.76V2.146h.634V5.89h-.634V4.23h-1.76v1.66h-.634V2.146zM50.83 2.146h.634V5.89h-.635V2.146zm-3.55 0h.634v1.463h.804c.524 0 .927.102 1.209.306a.973.973 0 0 1 .426.84c0 .312-.118.58-.356.803-.235.221-.612.332-1.131.332h-1.587V2.146zm.634 3.222h.666c.402 0 .689-.05.86-.148a.496.496 0 0 0 .258-.462.597.597 0 0 0-.19-.434c-.128-.127-.409-.19-.843-.19h-.751v1.234zM52.455 2.146h.634V5l1.76-2.855h.683V5.89h-.634V3.052l-1.76 2.838h-.683V2.146zM54.658.728h.434c-.035.294-.144.52-.325.677-.178.158-.417.236-.715.236-.301 0-.542-.077-.723-.232-.179-.158-.286-.384-.32-.68h.433c.033.16.097.28.194.359.098.078.23.116.395.116.19 0 .333-.037.43-.112a.588.588 0 0 0 .197-.364zM58.5 2.146h2.955V5.89h-.634V2.67h-1.685v3.22H58.5V2.146zM64.854 5.428c-.235.2-.462.34-.68.423a1.947 1.947 0 0 1-.699.123c-.41 0-.727-.1-.948-.3a1 1 0 0 1-.331-.771c0-.184.04-.35.123-.501.085-.153.194-.275.328-.367.136-.091.289-.16.458-.208.125-.033.313-.064.564-.095.513-.061.89-.134 1.132-.218l.004-.166c0-.259-.06-.44-.18-.547-.162-.143-.403-.215-.723-.215-.299 0-.52.053-.663.159-.14.103-.245.288-.314.553l-.62-.084c.056-.266.15-.48.278-.642.13-.164.317-.29.561-.377a2.47 2.47 0 0 1 .85-.134c.32 0 .579.038.779.113.2.075.346.17.44.285.094.113.16.257.198.43.021.109.032.304.032.586v.846c0 .59.013.964.038 1.121.029.155.083.304.163.448h-.663a1.343 1.343 0 0 1-.127-.462zM64.8 4.01c-.23.094-.576.174-1.037.24-.26.037-.445.08-.553.126a.548.548 0 0 0-.338.508c0 .17.063.31.19.423.13.113.317.17.564.17.244 0 .462-.054.652-.16a.997.997 0 0 0 .42-.44c.068-.143.102-.355.102-.635v-.232zM66.43 7.325v-5.18h.578v.487c.136-.19.29-.332.462-.426.171-.097.38-.145.624-.145.32 0 .602.082.846.247.244.164.429.397.553.698.125.298.187.626.187.983 0 .384-.07.73-.208 1.037-.136.306-.336.54-.6.705-.26.162-.535.243-.824.243-.212 0-.402-.044-.571-.134a1.302 1.302 0 0 1-.413-.338v1.823h-.634zm.574-3.286c0 .482.098.838.293 1.068.195.23.431.346.709.346.282 0 .523-.12.722-.357.203-.24.304-.61.304-1.11 0-.477-.1-.834-.297-1.072-.195-.237-.428-.356-.701-.356-.27 0-.51.127-.72.38-.206.252-.31.619-.31 1.1zM70.445 2.146h.635v1.618c.202 0 .343-.039.423-.116.082-.078.202-.304.36-.677.124-.297.225-.492.303-.586a.58.58 0 0 1 .268-.19c.1-.033.263-.05.486-.05h.127v.526l-.176-.004c-.167 0-.274.025-.321.074-.05.052-.125.206-.226.462-.096.245-.184.414-.264.508-.08.094-.203.18-.37.257.272.073.54.327.804.762l.694 1.16h-.698l-.677-1.16c-.139-.233-.26-.386-.363-.458a.612.612 0 0 0-.37-.113v1.73h-.635V2.147z" fill="#fff"/></svg>