<?xml version="1.0" encoding="utf-8"?><svg viewBox="0 0 565 565" fill="none" xmlns="http://www.w3.org/2000/svg" width="565" height="565"><path d="M284.555.853a2.913 2.913 0 0 0-4.12 0L.853 280.438a2.913 2.913 0 0 0 0 4.12l72.45 72.451a2.915 2.915 0 0 0 4.12 0l94.932-94.933a2.914 2.914 0 0 1 4.121 0l114.087 114.089a2.916 2.916 0 0 0 4.121 0l81.472-81.474a2.913 2.913 0 0 0 0-4.12L262.069 176.482a2.913 2.913 0 0 1 0-4.12l94.937-94.938a2.915 2.915 0 0 0 0-4.12L284.555.854z" fill="#6EB03B"/><path d="M380.241 96.534a2.914 2.914 0 0 0-4.121 0l-75.831 75.832a2.914 2.914 0 0 0 0 4.121l114.087 114.088a2.914 2.914 0 0 1 0 4.121L294.693 414.38a2.913 2.913 0 0 1-4.12 0L176.485 300.291a2.915 2.915 0 0 0-4.12 0l-75.827 75.828a2.913 2.913 0 0 0 0 4.12l183.907 183.908a2.915 2.915 0 0 0 4.12 0l279.582-279.585a2.915 2.915 0 0 0 0-4.12L380.241 96.534z" fill="#FFF"/></svg>