<?xml version="1.0" encoding="utf-8"?><svg width="74" height="15" fill="none" xmlns="http://www.w3.org/2000/svg" viewBox="0 0 74 15"><path d="M.523.643H13.31v3.361h-4.29v10.251H4.813V4.005H.523V.642zM15.212.643h11.272V3.55h-7.057v2.164h6.546v2.776h-6.546v2.683h7.261v3.083H15.212V.643zM28.025.643h4.634l2.414 4.188 2.34-4.188h4.586l-4.234 6.593 4.633 7.019h-4.726L34.99 9.882l-2.692 4.373h-4.699l4.699-7.094L28.025.643zM43.782.643h4.206v4.763h4.596V.643h4.225v13.612h-4.225V8.749h-4.596v5.506h-4.206V.643zM59.074 7.458c0-2.222.62-3.952 1.857-5.19C62.17 1.03 63.893.411 66.103.411c2.266 0 4.011.61 5.237 1.83 1.225 1.213 1.838 2.915 1.838 5.106 0 1.59-.269 2.897-.808 3.918a5.724 5.724 0 0 1-2.32 2.377c-1.01.564-2.27.845-3.78.845-1.535 0-2.807-.244-3.816-.733-1.003-.49-1.817-1.263-2.442-2.322-.625-1.058-.938-2.383-.938-3.974zm4.207.019c0 1.374.253 2.361.76 2.962.515.6 1.211.9 2.09.9.904 0 1.603-.293 2.098-.882.496-.588.743-1.643.743-3.166 0-1.281-.26-2.216-.78-2.804-.514-.594-1.213-.891-2.098-.891-.848 0-1.53.3-2.043.9-.514.6-.77 1.594-.77 2.981z" fill="#fff"/></svg>