<svg width="213" height="36" viewBox="0 0 213 36" fill="none" xmlns="http://www.w3.org/2000/svg">
<path d="M113.385 0.621906H129.444V21.0411H126.728V3.03153H116.087V21.0411H113.385V0.621906Z" fill="#2C2C2C"/>
<path d="M133.038 11.0961C133.038 7.70686 133.948 5.05581 135.768 3.14296C137.588 1.22083 139.937 0.259766 142.815 0.259766C144.7 0.259766 146.4 0.71012 147.913 1.61083C149.427 2.51154 150.578 3.76974 151.368 5.38545C152.166 6.99187 152.565 8.8165 152.565 10.8593C152.565 12.93 152.148 14.7825 151.312 16.4168C150.476 18.0511 149.292 19.2907 147.76 20.1357C146.228 20.9714 144.575 21.3893 142.802 21.3893C140.879 21.3893 139.162 20.925 137.648 19.9964C136.134 19.0679 134.988 17.8004 134.208 16.1939C133.428 14.5875 133.038 12.8883 133.038 11.0961ZM135.823 11.1379C135.823 13.5986 136.483 15.5393 137.801 16.96C139.129 18.3714 140.791 19.0771 142.788 19.0771C144.821 19.0771 146.493 18.3622 147.802 16.9322C149.12 15.5022 149.78 13.4733 149.78 10.8454C149.78 9.18328 149.496 7.73472 148.93 6.49973C148.373 5.25545 147.551 4.29438 146.465 3.61653C145.388 2.92939 144.176 2.58582 142.829 2.58582C140.917 2.58582 139.268 3.2451 137.885 4.56367C136.511 5.87294 135.823 8.06436 135.823 11.1379Z" fill="#2C2C2C"/>
<path d="M157.218 0.621906H170.004V21.0411H167.302V3.03153H159.92V13.5475C159.92 15.6832 159.818 17.2479 159.613 18.2414C159.418 19.235 159 20.0104 158.36 20.5675C157.719 21.1153 156.906 21.3893 155.922 21.3893C155.328 21.3893 154.613 21.2778 153.777 21.055L154.237 18.6593C154.683 18.845 155.063 18.9379 155.379 18.9379C155.992 18.9379 156.451 18.7104 156.758 18.2554C157.064 17.7911 157.218 16.7047 157.218 14.9961V0.621906Z" fill="#2C2C2C"/>
<path d="M174.489 0.621906H176.94V16.7929L187.804 0.621906H190.521V21.0411H188.069V4.91188L177.191 21.0411H174.489V0.621906Z" fill="#2C2C2C"/>
<path d="M209.519 13.8818L212.221 14.5643C211.655 16.7836 210.633 18.4782 209.157 19.6482C207.69 20.8089 205.893 21.3893 203.767 21.3893C201.566 21.3893 199.774 20.9436 198.39 20.0521C197.016 19.1514 195.967 17.8514 195.242 16.1522C194.527 14.4529 194.17 12.6283 194.17 10.6783C194.17 8.55186 194.574 6.69937 195.382 5.12081C196.199 3.53296 197.355 2.33047 198.85 1.51333C200.354 0.686906 202.007 0.273694 203.808 0.273694C205.851 0.273694 207.569 0.793691 208.962 1.83368C210.355 2.87368 211.325 4.33617 211.873 6.22116L209.213 6.84794C208.739 5.36223 208.052 4.28045 207.151 3.6026C206.25 2.92475 205.118 2.58582 203.753 2.58582C202.183 2.58582 200.869 2.96189 199.811 3.71403C198.762 4.46617 198.023 5.4783 197.596 6.75044C197.169 8.01329 196.955 9.31792 196.955 10.6643C196.955 12.4008 197.206 13.919 197.708 15.219C198.218 16.5097 199.008 17.4754 200.075 18.1161C201.143 18.7568 202.299 19.0771 203.544 19.0771C205.057 19.0771 206.339 18.6407 207.388 17.7679C208.437 16.895 209.148 15.5997 209.519 13.8818Z" fill="#2C2C2C"/>
<path d="M0.244141 0.621906H19.4237V5.66402H12.9887V21.0411H6.6791V5.66402H0.244141V0.621906Z" fill="#2C2C2C"/>
<path d="M22.279 0.621906H39.1882V4.98152H28.6025V8.22686H38.4221V12.3915H28.6025V16.4168H39.4946V21.0411H22.279V0.621906Z" fill="#2C2C2C"/>
<path d="M41.5003 0.621906H48.4506L52.072 6.90365L55.582 0.621906H62.4627L56.1113 10.5111L63.0616 21.0411H55.972L51.9467 14.4807L47.9074 21.0411H40.8596L47.9074 10.3997L41.5003 0.621906Z" fill="#2C2C2C"/>
<path d="M65.1369 0.621906H71.4465V7.76722H78.3411V0.621906H84.6786V21.0411H78.3411V12.7815H71.4465V21.0411H65.1369V0.621906Z" fill="#2C2C2C"/>
<path d="M88.0771 10.8454C88.0771 7.51186 89.0057 4.91652 90.8628 3.05939C92.72 1.20226 95.306 0.273694 98.621 0.273694C102.02 0.273694 104.638 1.18833 106.477 3.01761C108.315 4.83759 109.235 7.39115 109.235 10.6783C109.235 13.0647 108.831 15.024 108.023 16.5561C107.224 18.0789 106.063 19.2675 104.541 20.1218C103.027 20.9668 101.137 21.3893 98.8717 21.3893C96.5689 21.3893 94.6607 21.0225 93.1471 20.2889C91.6428 19.5554 90.4218 18.3946 89.4839 16.8068C88.5461 15.219 88.0771 13.2318 88.0771 10.8454ZM94.3867 10.8733C94.3867 12.9347 94.7675 14.4157 95.5289 15.3165C96.2996 16.2172 97.3442 16.6675 98.6628 16.6675C100.019 16.6675 101.068 16.2264 101.811 15.3443C102.553 14.4622 102.925 12.879 102.925 10.5947C102.925 8.67257 102.535 7.27043 101.755 6.3883C100.984 5.49687 99.9349 5.05116 98.6071 5.05116C97.3349 5.05116 96.3135 5.50152 95.5428 6.40223C94.7721 7.30293 94.3867 8.79328 94.3867 10.8733Z" fill="#2C2C2C"/>
<path d="M54.8153 28.131H55.7625V32.3931L58.3881 28.131H59.4089V33.7191H58.4618V29.4833L55.8361 33.7191H54.8153V28.131Z" fill="#2C2C2C"/>
<path d="M60.8402 28.131H61.7873V30.4567H64.413V28.131H65.3601V33.7191H64.413V31.2407H61.7873V33.7191H60.8402V28.131Z" fill="#2C2C2C"/>
<path d="M67.5385 28.131H71.4323V32.9403H72.0374V35.3029H71.2587V33.7191H66.8597V35.3029H66.081V32.9403H66.5809C67.2474 32.0353 67.5666 30.4322 67.5385 28.131ZM68.3278 28.915C68.2576 30.7286 67.977 32.0704 67.4859 32.9403H70.4904V28.915H68.3278Z" fill="#2C2C2C"/>
<path d="M73.0424 35.8712L72.9372 34.9819C73.1442 35.0381 73.3248 35.0661 73.4792 35.0661C73.6896 35.0661 73.858 35.031 73.9843 34.9609C74.1106 34.8907 74.2141 34.7925 74.2948 34.6662C74.3544 34.5715 74.4509 34.3365 74.5842 33.9611C74.6017 33.9085 74.6298 33.8313 74.6684 33.7296L72.5478 28.131H73.5686L74.7315 31.367C74.8823 31.7774 75.0174 32.2089 75.1367 32.6614C75.2454 32.2265 75.3752 31.802 75.526 31.3881L76.7205 28.131H77.6676L75.5418 33.8138C75.3138 34.4277 75.1367 34.8504 75.0104 35.0819C74.842 35.3941 74.6491 35.6221 74.4316 35.7659C74.2141 35.9133 73.9545 35.9869 73.6528 35.9869C73.4704 35.9869 73.2669 35.9484 73.0424 35.8712Z" fill="#2C2C2C"/>
<path d="M81.9929 31.6722L82.9242 31.7932C82.8225 32.4352 82.5612 32.9386 82.1402 33.3034C81.7228 33.6647 81.2089 33.8454 80.5985 33.8454C79.8338 33.8454 79.2181 33.5963 78.7516 33.0982C78.2885 32.5965 78.057 31.8792 78.057 30.9461C78.057 30.3427 78.157 29.8148 78.3569 29.3622C78.5569 28.9097 78.8603 28.5712 79.2672 28.3467C79.6777 28.1187 80.1232 28.0047 80.6037 28.0047C81.2106 28.0047 81.707 28.159 82.0929 28.4677C82.4787 28.7729 82.726 29.2079 82.8348 29.7727L81.9139 29.9147C81.8263 29.5394 81.6702 29.257 81.4456 29.0676C81.2246 28.8782 80.9563 28.7834 80.6406 28.7834C80.1635 28.7834 79.7759 28.9553 79.4777 29.2991C79.1795 29.6394 79.0304 30.1796 79.0304 30.9198C79.0304 31.6705 79.1743 32.2159 79.4619 32.5562C79.7496 32.8965 80.1249 33.0666 80.588 33.0666C80.9598 33.0666 81.2702 32.9526 81.5193 32.7246C81.7684 32.4966 81.9262 32.1458 81.9929 31.6722Z" fill="#2C2C2C"/>
<path d="M83.2242 28.131H87.7652V28.915H85.9656V33.7191H85.0237V28.915H83.2242V28.131Z" fill="#2C2C2C"/>
<path d="M88.6702 35.8607V28.131H89.5331V28.8571C89.7366 28.573 89.9664 28.3607 90.2224 28.2204C90.4785 28.0766 90.789 28.0047 91.1538 28.0047C91.6309 28.0047 92.0518 28.1275 92.4166 28.373C92.7815 28.6186 93.0568 28.9659 93.2428 29.4149C93.4287 29.8604 93.5216 30.3497 93.5216 30.8829C93.5216 31.4547 93.4182 31.9704 93.2112 32.4299C93.0077 32.8859 92.7096 33.2367 92.3167 33.4823C91.9273 33.7243 91.5169 33.8454 91.0854 33.8454C90.7697 33.8454 90.4855 33.7787 90.233 33.6454C89.9839 33.5121 89.7787 33.3437 89.6173 33.1403V35.8607H88.6702ZM89.5279 30.9566C89.5279 31.6757 89.6735 32.2072 89.9646 32.5509C90.2558 32.8947 90.6083 33.0666 91.0222 33.0666C91.4432 33.0666 91.8028 32.8895 92.1009 32.5352C92.4026 32.1773 92.5535 31.6249 92.5535 30.8777C92.5535 30.1656 92.4061 29.6324 92.1115 29.2781C91.8203 28.9238 91.4713 28.7466 91.0643 28.7466C90.6609 28.7466 90.3031 28.936 89.9909 29.3149C89.6822 29.6902 89.5279 30.2375 89.5279 30.9566Z" fill="#2C2C2C"/>
<path d="M94.6687 28.131H95.6159V32.3931L98.2415 28.131H99.2623V33.7191H98.3152V29.4833L95.6895 33.7191H94.6687V28.131Z" fill="#2C2C2C"/>
<path d="M104.335 33.0298C103.984 33.3279 103.645 33.5384 103.319 33.6612C102.997 33.784 102.649 33.8454 102.277 33.8454C101.664 33.8454 101.192 33.6963 100.862 33.3981C100.532 33.0964 100.367 32.7123 100.367 32.2458C100.367 31.9721 100.429 31.7231 100.551 31.4986C100.678 31.2706 100.841 31.0881 101.041 30.9513C101.244 30.8145 101.472 30.711 101.725 30.6409C101.911 30.5918 102.191 30.5444 102.567 30.4988C103.332 30.4076 103.895 30.2989 104.256 30.1726C104.259 30.0428 104.261 29.9603 104.261 29.9253C104.261 29.5394 104.172 29.2675 103.993 29.1097C103.751 28.8957 103.391 28.7887 102.914 28.7887C102.469 28.7887 102.139 28.8676 101.925 29.0255C101.714 29.1798 101.558 29.4552 101.457 29.8516L100.53 29.7253C100.615 29.3289 100.753 29.0097 100.946 28.7677C101.139 28.5221 101.418 28.3344 101.783 28.2046C102.148 28.0713 102.57 28.0047 103.051 28.0047C103.528 28.0047 103.916 28.0608 104.214 28.1731C104.512 28.2853 104.731 28.4274 104.871 28.5993C105.012 28.7677 105.11 28.9816 105.166 29.2412C105.198 29.4026 105.214 29.6937 105.214 30.1147V31.3775C105.214 32.258 105.233 32.8158 105.271 33.0508C105.313 33.2823 105.394 33.5051 105.513 33.7191H104.524C104.426 33.5226 104.363 33.2929 104.335 33.0298ZM104.256 30.9145C103.912 31.0548 103.396 31.1741 102.709 31.2723C102.319 31.3284 102.044 31.3916 101.883 31.4617C101.721 31.5319 101.597 31.6354 101.509 31.7722C101.421 31.9055 101.378 32.0546 101.378 32.2194C101.378 32.472 101.472 32.6825 101.662 32.8509C101.855 33.0192 102.135 33.1034 102.504 33.1034C102.868 33.1034 103.193 33.0245 103.477 32.8667C103.761 32.7053 103.97 32.486 104.103 32.2089C104.205 31.9949 104.256 31.6792 104.256 31.2618V30.9145Z" fill="#2C2C2C"/>
<path d="M107.15 28.131H111.549V33.7191H110.607V28.915H108.097V31.6985C108.097 32.3475 108.076 32.7754 108.034 32.9824C107.992 33.1894 107.876 33.37 107.687 33.5244C107.497 33.6787 107.224 33.7559 106.866 33.7559C106.645 33.7559 106.39 33.7419 106.103 33.7138V32.9245H106.518C106.715 32.9245 106.855 32.9052 106.939 32.8667C107.024 32.8246 107.08 32.7597 107.108 32.672C107.136 32.5843 107.15 32.2984 107.15 31.8143V28.131Z" fill="#2C2C2C"/>
<path d="M112.964 28.131H113.911V30.3146H115.111C115.893 30.3146 116.495 30.4672 116.916 30.7724C117.34 31.0741 117.553 31.4916 117.553 32.0248C117.553 32.4913 117.375 32.8912 117.021 33.2245C116.67 33.5542 116.107 33.7191 115.332 33.7191H112.964V28.131ZM113.911 32.9403H114.906C115.506 32.9403 115.934 32.8667 116.19 32.7193C116.446 32.572 116.574 32.3422 116.574 32.03C116.574 31.788 116.479 31.5722 116.29 31.3828C116.1 31.1934 115.681 31.0987 115.032 31.0987H113.911V32.9403Z" fill="#2C2C2C"/>
<path d="M118.605 28.131H119.552V30.4567H122.178V28.131H123.125V33.7191H122.178V31.2407H119.552V33.7191H118.605V28.131Z" fill="#2C2C2C"/>
<path d="M129.876 28.131H130.823V33.7191H129.876V28.131ZM124.577 28.131H125.524V30.3146H126.724C127.506 30.3146 128.108 30.4672 128.529 30.7724C128.953 31.0741 129.166 31.4916 129.166 32.0248C129.166 32.4913 128.988 32.8912 128.634 33.2245C128.283 33.5542 127.72 33.7191 126.945 33.7191H124.577V28.131ZM125.524 32.9403H126.519C127.119 32.9403 127.547 32.8667 127.803 32.7193C128.059 32.572 128.187 32.3422 128.187 32.03C128.187 31.788 128.092 31.5722 127.903 31.3828C127.713 31.1934 127.294 31.0987 126.645 31.0987H125.524V32.9403Z" fill="#2C2C2C"/>
<path d="M132.302 28.131H133.249V32.3931L135.874 28.131H136.895V33.7191H135.948V29.4833L133.322 33.7191H132.302V28.131ZM135.59 26.0157H136.238C136.185 26.4542 136.024 26.7909 135.753 27.026C135.487 27.261 135.131 27.3785 134.685 27.3785C134.236 27.3785 133.877 27.2628 133.607 27.0312C133.34 26.7962 133.18 26.4577 133.128 26.0157H133.775C133.824 26.2542 133.921 26.4331 134.064 26.5524C134.212 26.6682 134.408 26.726 134.654 26.726C134.938 26.726 135.152 26.6699 135.296 26.5577C135.443 26.4419 135.541 26.2612 135.59 26.0157Z" fill="#2C2C2C"/>
<path d="M141.326 28.131H145.735V33.7191H144.788V28.915H142.273V33.7191H141.326V28.131Z" fill="#2C2C2C"/>
<path d="M150.808 33.0298C150.457 33.3279 150.118 33.5384 149.792 33.6612C149.469 33.784 149.122 33.8454 148.75 33.8454C148.136 33.8454 147.665 33.6963 147.335 33.3981C147.005 33.0964 146.84 32.7123 146.84 32.2458C146.84 31.9721 146.902 31.7231 147.024 31.4986C147.151 31.2706 147.314 31.0881 147.514 30.9513C147.717 30.8145 147.945 30.711 148.198 30.6409C148.384 30.5918 148.664 30.5444 149.04 30.4988C149.804 30.4076 150.367 30.2989 150.729 30.1726C150.732 30.0428 150.734 29.9603 150.734 29.9253C150.734 29.5394 150.645 29.2675 150.466 29.1097C150.224 28.8957 149.864 28.7887 149.387 28.7887C148.941 28.7887 148.612 28.8676 148.398 29.0255C148.187 29.1798 148.031 29.4552 147.929 29.8516L147.003 29.7253C147.087 29.3289 147.226 29.0097 147.419 28.7677C147.612 28.5221 147.891 28.3344 148.256 28.2046C148.62 28.0713 149.043 28.0047 149.524 28.0047C150.001 28.0047 150.388 28.0608 150.687 28.1731C150.985 28.2853 151.204 28.4274 151.344 28.5993C151.485 28.7677 151.583 28.9816 151.639 29.2412C151.671 29.4026 151.686 29.6937 151.686 30.1147V31.3775C151.686 32.258 151.706 32.8158 151.744 33.0508C151.786 33.2823 151.867 33.5051 151.986 33.7191H150.997C150.899 33.5226 150.836 33.2929 150.808 33.0298ZM150.729 30.9145C150.385 31.0548 149.869 31.1741 149.182 31.2723C148.792 31.3284 148.517 31.3916 148.356 31.4617C148.194 31.5319 148.07 31.6354 147.982 31.7722C147.894 31.9055 147.85 32.0546 147.85 32.2194C147.85 32.472 147.945 32.6825 148.135 32.8509C148.328 33.0192 148.608 33.1034 148.977 33.1034C149.341 33.1034 149.666 33.0245 149.95 32.8667C150.234 32.7053 150.443 32.486 150.576 32.2089C150.678 31.9949 150.729 31.6792 150.729 31.2618V30.9145Z" fill="#2C2C2C"/>
<path d="M153.16 35.8607V28.131H154.023V28.8571C154.226 28.573 154.456 28.3607 154.712 28.2204C154.968 28.0766 155.278 28.0047 155.643 28.0047C156.12 28.0047 156.541 28.1275 156.906 28.373C157.271 28.6186 157.546 28.9659 157.732 29.4149C157.918 29.8604 158.011 30.3497 158.011 30.8829C158.011 31.4547 157.908 31.9704 157.701 32.4299C157.497 32.8859 157.199 33.2367 156.806 33.4823C156.417 33.7243 156.006 33.8454 155.575 33.8454C155.259 33.8454 154.975 33.7787 154.722 33.6454C154.473 33.5121 154.268 33.3437 154.107 33.1403V35.8607H153.16ZM154.017 30.9566C154.017 31.6757 154.163 32.2072 154.454 32.5509C154.745 32.8947 155.098 33.0666 155.512 33.0666C155.933 33.0666 156.292 32.8895 156.59 32.5352C156.892 32.1773 157.043 31.6249 157.043 30.8777C157.043 30.1656 156.896 29.6324 156.601 29.2781C156.31 28.9238 155.961 28.7466 155.554 28.7466C155.15 28.7466 154.793 28.936 154.48 29.3149C154.172 29.6902 154.017 30.2375 154.017 30.9566Z" fill="#2C2C2C"/>
<path d="M159.153 28.131H160.1V30.5462C160.402 30.5462 160.612 30.4883 160.732 30.3725C160.854 30.2568 161.033 29.92 161.268 29.3622C161.454 28.9202 161.605 28.6291 161.721 28.4888C161.837 28.3485 161.97 28.2537 162.121 28.2046C162.271 28.1555 162.514 28.131 162.847 28.131H163.036V28.915L162.773 28.9097C162.524 28.9097 162.364 28.9466 162.294 29.0202C162.221 29.0974 162.108 29.3272 161.958 29.7095C161.814 30.0744 161.682 30.3269 161.563 30.4672C161.444 30.6076 161.259 30.7356 161.01 30.8514C161.417 30.9601 161.817 31.339 162.21 31.9879L163.247 33.7191H162.205L161.195 31.9879C160.988 31.6406 160.807 31.4126 160.653 31.3039C160.498 31.1916 160.314 31.1355 160.1 31.1355V33.7191H159.153V28.131Z" fill="#2C2C2C"/>
</svg>
