<svg width="74" height="15" viewBox="0 0 74 15" fill="none" xmlns="http://www.w3.org/2000/svg">
<path d="M0.523266 0.643257H13.3087V4.00442H9.01902V14.255H4.81293V4.00442H0.523266V0.643257Z" fill="white"/>
<path d="M15.2121 0.643257H26.4841V3.54946H19.4275V5.71286H25.9734V8.48907H19.4275V11.1724H26.6883V14.255H15.2121V0.643257Z" fill="white"/>
<path d="M28.0254 0.643257H32.6586L35.0727 4.83078L37.4125 0.643257H41.9993L37.7653 7.23559L42.3985 14.255H37.6725L34.9891 9.88181L32.2965 14.255H27.5983L32.2965 7.16131L28.0254 0.643257Z" fill="white"/>
<path d="M43.782 0.643257H47.9881V5.40645H52.5842V0.643257H56.8088V14.255H52.5842V8.74905H47.9881V14.255H43.782V0.643257Z" fill="white"/>
<path d="M59.0744 7.45843C59.0744 5.23623 59.6934 3.50613 60.9314 2.26813C62.1694 1.03013 63.8933 0.411133 66.1031 0.411133C68.3686 0.411133 70.1142 1.02085 71.3398 2.24027C72.5654 3.45351 73.1782 5.15576 73.1782 7.34701C73.1782 8.93784 72.909 10.2439 72.3704 11.2653C71.8381 12.2804 71.0644 13.0728 70.0492 13.6422C69.0402 14.2055 67.7806 14.4872 66.2702 14.4872C64.7351 14.4872 63.4631 14.2427 62.4541 13.7537C61.4513 13.2646 60.6373 12.4909 60.0121 11.4324C59.387 10.3739 59.0744 9.04926 59.0744 7.45843ZM63.2805 7.477C63.2805 8.85118 63.5342 9.83848 64.0418 10.4389C64.5556 11.0393 65.252 11.3396 66.1309 11.3396C67.0347 11.3396 67.7341 11.0455 68.2294 10.4575C68.7246 9.86943 68.9721 8.81404 68.9721 7.2913C68.9721 6.00998 68.7122 5.07529 68.1922 4.48724C67.6784 3.893 66.979 3.59588 66.0938 3.59588C65.2458 3.59588 64.5649 3.8961 64.0511 4.49652C63.5373 5.09695 63.2805 6.09045 63.2805 7.477Z" fill="white"/>
</svg>
