<svg width="17" height="20" viewBox="0 0 17 20" fill="none" xmlns="http://www.w3.org/2000/svg">
<path d="M15.6154 4.94701L11.5956 0.884337C11.1659 0.4503 10.5989 0.168041 9.89468 0.0379714V6.66569H16.4528C16.3239 5.95368 16.0446 5.38086 15.6154 4.94701Z" fill="#6EB03B"/>
<path d="M9.48249 8.33224C9.13876 8.33224 8.8467 8.21079 8.60627 7.96771C8.36574 7.72476 8.24561 7.4296 8.24561 7.08231V-0.000976562H1.23679C0.893285 -0.000976562 0.601224 0.120474 0.360744 0.363556C0.120218 0.606502 0 0.901667 0 1.24896V18.749C0 19.0964 0.120218 19.3916 0.360744 19.6346C0.601269 19.8774 0.893285 19.999 1.23684 19.999H15.2547C15.5982 19.999 15.89 19.8774 16.1305 19.6346C16.3709 19.3914 16.4912 19.0964 16.4912 18.749V8.33224H9.48249Z" fill="#6EB03B"/>
</svg>
