<?xml version="1.0" encoding="utf-8"?><svg viewBox="0 0 565 565" xmlns="http://www.w3.org/2000/svg" xmlns:xlink="http://www.w3.org/1999/xlink"><style>:root>svg{display:none}:root>svg:target{display:block}</style><svg viewBox="0 0 565 565" fill="none" id="logo__img--dark" xmlns="http://www.w3.org/2000/svg"><path d="M284.555.853a2.913 2.913 0 0 0-4.12 0L.853 280.438a2.913 2.913 0 0 0 0 4.12l72.45 72.451a2.915 2.915 0 0 0 4.12 0l94.932-94.933a2.914 2.914 0 0 1 4.121 0l114.087 114.089a2.916 2.916 0 0 0 4.121 0l81.472-81.474a2.913 2.913 0 0 0 0-4.12L262.069 176.482a2.913 2.913 0 0 1 0-4.12l94.937-94.938a2.915 2.915 0 0 0 0-4.12L284.555.854z" fill="#6EB03B"/><path d="M380.241 96.534a2.914 2.914 0 0 0-4.121 0l-75.831 75.832a2.914 2.914 0 0 0 0 4.121l114.087 114.088a2.914 2.914 0 0 1 0 4.121L294.693 414.38a2.913 2.913 0 0 1-4.12 0L176.485 300.291a2.915 2.915 0 0 0-4.12 0l-75.827 75.828a2.913 2.913 0 0 0 0 4.12l183.907 183.908a2.915 2.915 0 0 0 4.12 0l279.582-279.585a2.915 2.915 0 0 0 0-4.12L380.241 96.534z" fill="#2C2C2C"/></svg><svg viewBox="0 0 565 565" fill="none" id="logo__img--light" xmlns="http://www.w3.org/2000/svg"><path d="M284.555.853a2.913 2.913 0 0 0-4.12 0L.853 280.438a2.913 2.913 0 0 0 0 4.12l72.45 72.451a2.915 2.915 0 0 0 4.12 0l94.932-94.933a2.914 2.914 0 0 1 4.121 0l114.087 114.089a2.916 2.916 0 0 0 4.121 0l81.472-81.474a2.913 2.913 0 0 0 0-4.12L262.069 176.482a2.913 2.913 0 0 1 0-4.12l94.937-94.938a2.915 2.915 0 0 0 0-4.12L284.555.854z" fill="#6EB03B"/><path d="M380.241 96.534a2.914 2.914 0 0 0-4.121 0l-75.831 75.832a2.914 2.914 0 0 0 0 4.121l114.087 114.088a2.914 2.914 0 0 1 0 4.121L294.693 414.38a2.913 2.913 0 0 1-4.12 0L176.485 300.291a2.915 2.915 0 0 0-4.12 0l-75.827 75.828a2.913 2.913 0 0 0 0 4.12l183.907 183.908a2.915 2.915 0 0 0 4.12 0l279.582-279.585a2.915 2.915 0 0 0 0-4.12L380.241 96.534z" fill="#FFF"/></svg><svg fill="none" viewBox="0 0 74 8" id="logo__industrial--dark" xmlns="http://www.w3.org/2000/svg"><path d="M.538 2.146h.635V5l1.759-2.855h.684V5.89H2.98V3.052L1.222 5.89H.538V2.146zM4.575 2.146h.634v1.558h1.76V2.146h.634V5.89H6.97V4.23h-1.76v1.66h-.634V2.146zM9.063 2.146h2.609v3.222h.405v1.583h-.522V5.89H8.608v1.06h-.522V5.369h.335c.447-.606.66-1.68.642-3.222zm.529.525c-.047 1.215-.235 2.114-.564 2.697h2.013V2.671H9.59zM12.75 7.332l-.07-.596c.139.037.26.056.363.056a.697.697 0 0 0 .339-.07.576.576 0 0 0 .207-.198c.04-.063.105-.22.194-.472l.057-.155-1.42-3.751h.683l.78 2.168c.1.275.19.564.27.867a8.54 8.54 0 0 1 .261-.853l.8-2.182h.635l-1.424 3.807a7.48 7.48 0 0 1-.356.85c-.113.209-.242.362-.388.458a.908.908 0 0 1-.522.148 1.27 1.27 0 0 1-.409-.077zM18.747 4.518l.624.081c-.068.43-.243.768-.525 1.012-.28.242-.624.363-1.033.363-.512 0-.925-.167-1.237-.5-.31-.336-.466-.817-.466-1.442 0-.404.067-.758.201-1.061.134-.304.337-.53.61-.68.275-.154.574-.23.896-.23.406 0 .739.103.997.31.259.205.425.496.497.875l-.616.095c-.06-.252-.164-.44-.314-.568a.8.8 0 0 0-.54-.19c-.32 0-.58.115-.779.345-.2.228-.3.59-.3 1.086 0 .503.097.869.29 1.097a.94.94 0 0 0 .754.342c.25 0 .457-.077.624-.23.167-.152.273-.387.317-.705zM19.572 2.146h3.043v.525h-1.206V5.89h-.631V2.67h-1.206v-.524zM23.221 7.325v-5.18h.578v.487c.137-.19.29-.332.462-.426.172-.097.38-.145.624-.145.32 0 .602.082.846.247.245.164.43.397.554.698.124.298.187.626.187.983 0 .384-.07.73-.208 1.037-.137.306-.336.54-.6.705-.26.162-.536.243-.825.243-.211 0-.401-.044-.57-.134a1.302 1.302 0 0 1-.413-.338v1.823h-.635zm.575-3.286c0 .482.097.838.293 1.068.195.23.43.346.708.346.282 0 .523-.12.723-.357.202-.24.303-.61.303-1.11 0-.477-.099-.834-.296-1.072-.195-.237-.43-.356-.702-.356-.27 0-.51.127-.719.38-.207.252-.31.619-.31 1.1zM27.24 2.146h.635V5l1.76-2.855h.683V5.89h-.635V3.052L27.924 5.89h-.684V2.146zM33.717 5.428c-.235.2-.462.34-.68.423a1.947 1.947 0 0 1-.699.123c-.411 0-.727-.1-.948-.3a1 1 0 0 1-.332-.771 1.055 1.055 0 0 1 .451-.867c.137-.092.29-.162.459-.209.125-.033.313-.064.564-.095.512-.061.89-.134 1.132-.218l.003-.166c0-.259-.06-.44-.18-.547-.162-.143-.403-.215-.722-.215-.299 0-.52.053-.663.159-.141.103-.246.288-.314.553l-.62-.084c.056-.266.149-.48.278-.642.13-.164.316-.29.56-.377a2.47 2.47 0 0 1 .85-.134c.32 0 .58.038.78.113.2.075.346.17.44.285.094.113.16.257.198.43.02.109.031.304.031.586v.846c0 .59.013.964.04 1.121.027.155.081.304.161.448h-.663a1.346 1.346 0 0 1-.126-.462zm-.053-1.417c-.23.094-.576.174-1.037.24-.26.037-.445.08-.553.126a.548.548 0 0 0-.339.508c0 .17.064.31.19.423.13.113.318.17.565.17.244 0 .462-.054.652-.16a.998.998 0 0 0 .42-.44c.068-.143.102-.355.102-.635v-.232zM35.603 2.146h2.947V5.89h-.631V2.67h-1.682v1.866c0 .435-.014.721-.042.86a.625.625 0 0 1-.233.363c-.127.104-.31.155-.55.155-.148 0-.318-.009-.51-.028v-.529h.278a.734.734 0 0 0 .282-.038.214.214 0 0 0 .113-.13c.018-.06.028-.251.028-.575V2.146zM39.498 2.146h.635v1.463h.804c.524 0 .927.102 1.21.306a.973.973 0 0 1 .426.84c0 .312-.119.58-.356.803-.235.221-.613.332-1.132.332h-1.587V2.146zm.635 3.222h.666c.402 0 .689-.05.86-.148a.496.496 0 0 0 .258-.462.597.597 0 0 0-.19-.434c-.127-.127-.408-.19-.843-.19h-.751v1.234zM43.278 2.146h.634v1.558h1.76V2.146h.634V5.89h-.634V4.23h-1.76v1.66h-.634V2.146zM50.83 2.146h.634V5.89h-.635V2.146zm-3.55 0h.634v1.463h.804c.524 0 .927.102 1.209.306a.973.973 0 0 1 .426.84c0 .312-.118.58-.356.803-.235.221-.612.332-1.131.332h-1.587V2.146zm.634 3.222h.666c.402 0 .689-.05.86-.148a.496.496 0 0 0 .258-.462.597.597 0 0 0-.19-.434c-.128-.127-.409-.19-.843-.19h-.751v1.234zM52.455 2.146h.634V5l1.76-2.855h.683V5.89h-.634V3.052l-1.76 2.838h-.683V2.146zM54.658.728h.434c-.035.294-.144.52-.325.677-.178.158-.417.236-.715.236-.301 0-.542-.077-.723-.232-.179-.158-.286-.384-.32-.68h.433c.033.16.097.28.194.359.098.078.23.116.395.116.19 0 .333-.037.43-.112a.588.588 0 0 0 .197-.364zM58.5 2.146h2.955V5.89h-.634V2.67h-1.685v3.22H58.5V2.146zM64.854 5.428c-.235.2-.462.34-.68.423a1.947 1.947 0 0 1-.699.123c-.41 0-.727-.1-.948-.3a1 1 0 0 1-.331-.771c0-.184.04-.35.123-.501.085-.153.194-.275.328-.367.136-.091.289-.16.458-.208.125-.033.313-.064.564-.095.513-.061.89-.134 1.132-.218l.004-.166c0-.259-.06-.44-.18-.547-.162-.143-.403-.215-.723-.215-.299 0-.52.053-.663.159-.14.103-.245.288-.314.553l-.62-.084c.056-.266.15-.48.278-.642.13-.164.317-.29.561-.377a2.47 2.47 0 0 1 .85-.134c.32 0 .579.038.779.113.2.075.346.17.44.285.094.113.16.257.198.43.021.109.032.304.032.586v.846c0 .59.013.964.038 1.121.029.155.083.304.163.448h-.663a1.343 1.343 0 0 1-.127-.462zM64.8 4.01c-.23.094-.576.174-1.037.24-.26.037-.445.08-.553.126a.548.548 0 0 0-.338.508c0 .17.063.31.19.423.13.113.317.17.564.17.244 0 .462-.054.652-.16a.997.997 0 0 0 .42-.44c.068-.143.102-.355.102-.635v-.232zM66.43 7.325v-5.18h.578v.487c.136-.19.29-.332.462-.426.171-.097.38-.145.624-.145.32 0 .602.082.846.247.244.164.429.397.553.698.125.298.187.626.187.983 0 .384-.07.73-.208 1.037-.136.306-.336.54-.6.705-.26.162-.535.243-.824.243-.212 0-.402-.044-.571-.134a1.302 1.302 0 0 1-.413-.338v1.823h-.634zm.574-3.286c0 .482.098.838.293 1.068.195.23.431.346.709.346.282 0 .523-.12.722-.357.203-.24.304-.61.304-1.11 0-.477-.1-.834-.297-1.072-.195-.237-.428-.356-.701-.356-.27 0-.51.127-.72.38-.206.252-.31.619-.31 1.1zM70.445 2.146h.635v1.618c.202 0 .343-.039.423-.116.082-.078.202-.304.36-.677.124-.297.225-.492.303-.586a.58.58 0 0 1 .268-.19c.1-.033.263-.05.486-.05h.127v.526l-.176-.004c-.167 0-.274.025-.321.074-.05.052-.125.206-.226.462-.096.245-.184.414-.264.508-.08.094-.203.18-.37.257.272.073.54.327.804.762l.694 1.16h-.698l-.677-1.16c-.139-.233-.26-.386-.363-.458a.612.612 0 0 0-.37-.113v1.73h-.635V2.147z" fill="#fff"/></svg><svg fill="none" viewBox="0 0 74 8" id="logo__industrial--light" xmlns="http://www.w3.org/2000/svg"><path d="M.538 2.146h.635V5l1.759-2.855h.684V5.89H2.98V3.052L1.222 5.89H.538V2.146zM4.575 2.146h.634v1.558h1.76V2.146h.634V5.89H6.97V4.23h-1.76v1.66h-.634V2.146zM9.063 2.146h2.609v3.222h.405v1.583h-.522V5.89H8.608v1.06h-.522V5.369h.335c.447-.606.66-1.68.642-3.222zm.529.525c-.047 1.215-.235 2.114-.564 2.697h2.013V2.671H9.59zM12.75 7.332l-.07-.596c.139.037.26.056.363.056a.697.697 0 0 0 .339-.07.576.576 0 0 0 .207-.198c.04-.063.105-.22.194-.472l.057-.155-1.42-3.751h.683l.78 2.168c.1.275.19.564.27.867a8.54 8.54 0 0 1 .261-.853l.8-2.182h.635l-1.424 3.807a7.48 7.48 0 0 1-.356.85c-.113.209-.242.362-.388.458a.908.908 0 0 1-.522.148 1.27 1.27 0 0 1-.409-.077zM18.747 4.518l.624.081c-.068.43-.243.768-.525 1.012-.28.242-.624.363-1.033.363-.512 0-.925-.167-1.237-.5-.31-.336-.466-.817-.466-1.442 0-.404.067-.758.201-1.061.134-.304.337-.53.61-.68.275-.154.574-.23.896-.23.406 0 .739.103.997.31.259.205.425.496.497.875l-.616.095c-.06-.252-.164-.44-.314-.568a.8.8 0 0 0-.54-.19c-.32 0-.58.115-.779.345-.2.228-.3.59-.3 1.086 0 .503.097.869.29 1.097a.94.94 0 0 0 .754.342c.25 0 .457-.077.624-.23.167-.152.273-.387.317-.705zM19.572 2.146h3.043v.525h-1.206V5.89h-.631V2.67h-1.206v-.524zM23.221 7.325v-5.18h.578v.487c.137-.19.29-.332.462-.426.172-.097.38-.145.624-.145.32 0 .602.082.846.247.245.164.43.397.554.698.124.298.187.626.187.983 0 .384-.07.73-.208 1.037-.137.306-.336.54-.6.705-.26.162-.536.243-.825.243-.211 0-.401-.044-.57-.134a1.302 1.302 0 0 1-.413-.338v1.823h-.635zm.575-3.286c0 .482.097.838.293 1.068.195.23.43.346.708.346.282 0 .523-.12.723-.357.202-.24.303-.61.303-1.11 0-.477-.099-.834-.296-1.072-.195-.237-.43-.356-.702-.356-.27 0-.51.127-.719.38-.207.252-.31.619-.31 1.1zM27.24 2.146h.635V5l1.76-2.855h.683V5.89h-.635V3.052L27.924 5.89h-.684V2.146zM33.717 5.428c-.235.2-.462.34-.68.423a1.947 1.947 0 0 1-.699.123c-.411 0-.727-.1-.948-.3a1 1 0 0 1-.332-.771 1.055 1.055 0 0 1 .451-.867c.137-.092.29-.162.459-.209.125-.033.313-.064.564-.095.512-.061.89-.134 1.132-.218l.003-.166c0-.259-.06-.44-.18-.547-.162-.143-.403-.215-.722-.215-.299 0-.52.053-.663.159-.141.103-.246.288-.314.553l-.62-.084c.056-.266.149-.48.278-.642.13-.164.316-.29.56-.377a2.47 2.47 0 0 1 .85-.134c.32 0 .58.038.78.113.2.075.346.17.44.285.094.113.16.257.198.43.02.109.031.304.031.586v.846c0 .59.013.964.04 1.121.027.155.081.304.161.448h-.663a1.346 1.346 0 0 1-.126-.462zm-.053-1.417c-.23.094-.576.174-1.037.24-.26.037-.445.08-.553.126a.548.548 0 0 0-.339.508c0 .17.064.31.19.423.13.113.318.17.565.17.244 0 .462-.054.652-.16a.998.998 0 0 0 .42-.44c.068-.143.102-.355.102-.635v-.232zM35.603 2.146h2.947V5.89h-.631V2.67h-1.682v1.866c0 .435-.014.721-.042.86a.625.625 0 0 1-.233.363c-.127.104-.31.155-.55.155-.148 0-.318-.009-.51-.028v-.529h.278a.734.734 0 0 0 .282-.038.214.214 0 0 0 .113-.13c.018-.06.028-.251.028-.575V2.146zM39.498 2.146h.635v1.463h.804c.524 0 .927.102 1.21.306a.973.973 0 0 1 .426.84c0 .312-.119.58-.356.803-.235.221-.613.332-1.132.332h-1.587V2.146zm.635 3.222h.666c.402 0 .689-.05.86-.148a.496.496 0 0 0 .258-.462.597.597 0 0 0-.19-.434c-.127-.127-.408-.19-.843-.19h-.751v1.234zM43.278 2.146h.634v1.558h1.76V2.146h.634V5.89h-.634V4.23h-1.76v1.66h-.634V2.146zM50.83 2.146h.634V5.89h-.635V2.146zm-3.55 0h.634v1.463h.804c.524 0 .927.102 1.209.306a.973.973 0 0 1 .426.84c0 .312-.118.58-.356.803-.235.221-.612.332-1.131.332h-1.587V2.146zm.634 3.222h.666c.402 0 .689-.05.86-.148a.496.496 0 0 0 .258-.462.597.597 0 0 0-.19-.434c-.128-.127-.409-.19-.843-.19h-.751v1.234zM52.455 2.146h.634V5l1.76-2.855h.683V5.89h-.634V3.052l-1.76 2.838h-.683V2.146zM54.658.728h.434c-.035.294-.144.52-.325.677-.178.158-.417.236-.715.236-.301 0-.542-.077-.723-.232-.179-.158-.286-.384-.32-.68h.433c.033.16.097.28.194.359.098.078.23.116.395.116.19 0 .333-.037.43-.112a.588.588 0 0 0 .197-.364zM58.5 2.146h2.955V5.89h-.634V2.67h-1.685v3.22H58.5V2.146zM64.854 5.428c-.235.2-.462.34-.68.423a1.947 1.947 0 0 1-.699.123c-.41 0-.727-.1-.948-.3a1 1 0 0 1-.331-.771c0-.184.04-.35.123-.501.085-.153.194-.275.328-.367.136-.091.289-.16.458-.208.125-.033.313-.064.564-.095.513-.061.89-.134 1.132-.218l.004-.166c0-.259-.06-.44-.18-.547-.162-.143-.403-.215-.723-.215-.299 0-.52.053-.663.159-.14.103-.245.288-.314.553l-.62-.084c.056-.266.15-.48.278-.642.13-.164.317-.29.561-.377a2.47 2.47 0 0 1 .85-.134c.32 0 .579.038.779.113.2.075.346.17.44.285.094.113.16.257.198.43.021.109.032.304.032.586v.846c0 .59.013.964.038 1.121.029.155.083.304.163.448h-.663a1.343 1.343 0 0 1-.127-.462zM64.8 4.01c-.23.094-.576.174-1.037.24-.26.037-.445.08-.553.126a.548.548 0 0 0-.338.508c0 .17.063.31.19.423.13.113.317.17.564.17.244 0 .462-.054.652-.16a.997.997 0 0 0 .42-.44c.068-.143.102-.355.102-.635v-.232zM66.43 7.325v-5.18h.578v.487c.136-.19.29-.332.462-.426.171-.097.38-.145.624-.145.32 0 .602.082.846.247.244.164.429.397.553.698.125.298.187.626.187.983 0 .384-.07.73-.208 1.037-.136.306-.336.54-.6.705-.26.162-.535.243-.824.243-.212 0-.402-.044-.571-.134a1.302 1.302 0 0 1-.413-.338v1.823h-.634zm.574-3.286c0 .482.098.838.293 1.068.195.23.431.346.709.346.282 0 .523-.12.722-.357.203-.24.304-.61.304-1.11 0-.477-.1-.834-.297-1.072-.195-.237-.428-.356-.701-.356-.27 0-.51.127-.72.38-.206.252-.31.619-.31 1.1zM70.445 2.146h.635v1.618c.202 0 .343-.039.423-.116.082-.078.202-.304.36-.677.124-.297.225-.492.303-.586a.58.58 0 0 1 .268-.19c.1-.033.263-.05.486-.05h.127v.526l-.176-.004c-.167 0-.274.025-.321.074-.05.052-.125.206-.226.462-.096.245-.184.414-.264.508-.08.094-.203.18-.37.257.272.073.54.327.804.762l.694 1.16h-.698l-.677-1.16c-.139-.233-.26-.386-.363-.458a.612.612 0 0 0-.37-.113v1.73h-.635V2.147z" fill="#fff"/></svg><svg fill="none" viewBox="0 0 66 15" id="logo__polis--dark" xmlns="http://www.w3.org/2000/svg"><path d="M.114.643h10.705v13.612H9.01V2.25H1.915v12.005H.114V.643zM13.215 7.626c0-2.26.607-4.027 1.82-5.302C16.248 1.043 17.814.402 19.733.402c1.256 0 2.39.3 3.398.9a5.846 5.846 0 0 1 2.303 2.517c.532 1.07.798 2.287.798 3.649 0 1.38-.278 2.615-.835 3.704-.557 1.09-1.346 1.916-2.368 2.48a6.794 6.794 0 0 1-3.305.835c-1.282 0-2.427-.31-3.436-.928a5.975 5.975 0 0 1-2.293-2.535 7.683 7.683 0 0 1-.78-3.398zm1.857.027c0 1.64.44 2.935 1.318 3.881.886.941 1.994 1.412 3.324 1.412 1.356 0 2.47-.477 3.343-1.43.879-.953 1.318-2.306 1.318-4.058 0-1.108-.188-2.073-.566-2.896-.371-.83-.92-1.47-1.643-1.922-.718-.459-1.526-.688-2.424-.688-1.275 0-2.374.44-3.296 1.319-.916.873-1.374 2.334-1.374 4.382zM29.334.643h8.523v13.612h-1.801V2.25h-4.921v7.01c0 1.423-.068 2.466-.204 3.129-.13.662-.409 1.179-.836 1.55-.427.366-.969.548-1.625.548-.396 0-.873-.074-1.43-.223l.307-1.597c.297.124.55.186.761.186.409 0 .715-.152.92-.455.204-.31.306-1.034.306-2.173V.643zM40.847.643h1.634v10.78L49.723.643h1.811v13.612H49.9V3.503l-7.252 10.752h-1.801V.643zM64.199 9.483L66 9.938c-.378 1.479-1.058 2.609-2.043 3.388-.978.774-2.175 1.161-3.593 1.161-1.467 0-2.662-.297-3.584-.891-.916-.6-1.616-1.467-2.098-2.6a9.312 9.312 0 0 1-.715-3.649c0-1.417.269-2.652.808-3.705.544-1.058 1.315-1.86 2.311-2.405 1.003-.55 2.105-.826 3.306-.826 1.362 0 2.507.347 3.435 1.04.929.693 1.576 1.668 1.94 2.925l-1.773.418c-.315-.99-.773-1.712-1.374-2.164-.6-.452-1.355-.678-2.265-.678-1.046 0-1.922.251-2.628.753-.7.5-1.191 1.176-1.476 2.024a8.087 8.087 0 0 0-.427 2.609c0 1.157.167 2.17.501 3.036.34.86.867 1.504 1.578 1.931.712.427 1.483.64 2.313.64 1.008 0 1.863-.29 2.562-.872.7-.582 1.173-1.445 1.42-2.59z" fill="#fff"/></svg><svg fill="none" viewBox="0 0 66 15" id="logo__polis--light" xmlns="http://www.w3.org/2000/svg"><path d="M.114.643h10.705v13.612H9.01V2.25H1.915v12.005H.114V.643zM13.215 7.626c0-2.26.607-4.027 1.82-5.302C16.248 1.043 17.814.402 19.733.402c1.256 0 2.39.3 3.398.9a5.846 5.846 0 0 1 2.303 2.517c.532 1.07.798 2.287.798 3.649 0 1.38-.278 2.615-.835 3.704-.557 1.09-1.346 1.916-2.368 2.48a6.794 6.794 0 0 1-3.305.835c-1.282 0-2.427-.31-3.436-.928a5.975 5.975 0 0 1-2.293-2.535 7.683 7.683 0 0 1-.78-3.398zm1.857.027c0 1.64.44 2.935 1.318 3.881.886.941 1.994 1.412 3.324 1.412 1.356 0 2.47-.477 3.343-1.43.879-.953 1.318-2.306 1.318-4.058 0-1.108-.188-2.073-.566-2.896-.371-.83-.92-1.47-1.643-1.922-.718-.459-1.526-.688-2.424-.688-1.275 0-2.374.44-3.296 1.319-.916.873-1.374 2.334-1.374 4.382zM29.334.643h8.523v13.612h-1.801V2.25h-4.921v7.01c0 1.423-.068 2.466-.204 3.129-.13.662-.409 1.179-.836 1.55-.427.366-.969.548-1.625.548-.396 0-.873-.074-1.43-.223l.307-1.597c.297.124.55.186.761.186.409 0 .715-.152.92-.455.204-.31.306-1.034.306-2.173V.643zM40.847.643h1.634v10.78L49.723.643h1.811v13.612H49.9V3.503l-7.252 10.752h-1.801V.643zM64.199 9.483L66 9.938c-.378 1.479-1.058 2.609-2.043 3.388-.978.774-2.175 1.161-3.593 1.161-1.467 0-2.662-.297-3.584-.891-.916-.6-1.616-1.467-2.098-2.6a9.312 9.312 0 0 1-.715-3.649c0-1.417.269-2.652.808-3.705.544-1.058 1.315-1.86 2.311-2.405 1.003-.55 2.105-.826 3.306-.826 1.362 0 2.507.347 3.435 1.04.929.693 1.576 1.668 1.94 2.925l-1.773.418c-.315-.99-.773-1.712-1.374-2.164-.6-.452-1.355-.678-2.265-.678-1.046 0-1.922.251-2.628.753-.7.5-1.191 1.176-1.476 2.024a8.087 8.087 0 0 0-.427 2.609c0 1.157.167 2.17.501 3.036.34.86.867 1.504 1.578 1.931.712.427 1.483.64 2.313.64 1.008 0 1.863-.29 2.562-.872.7-.582 1.173-1.445 1.42-2.59z" fill="#fff"/></svg><svg fill="none" viewBox="0 0 74 15" id="logo__techno--dark" xmlns="http://www.w3.org/2000/svg"><path d="M.523.643H13.31v3.361h-4.29v10.251H4.813V4.005H.523V.642zM15.212.643h11.272V3.55h-7.057v2.164h6.546v2.776h-6.546v2.683h7.261v3.083H15.212V.643zM28.025.643h4.634l2.414 4.188 2.34-4.188h4.586l-4.234 6.593 4.633 7.019h-4.726L34.99 9.882l-2.692 4.373h-4.699l4.699-7.094L28.025.643zM43.782.643h4.206v4.763h4.596V.643h4.225v13.612h-4.225V8.749h-4.596v5.506h-4.206V.643zM59.074 7.458c0-2.222.62-3.952 1.857-5.19C62.17 1.03 63.893.411 66.103.411c2.266 0 4.011.61 5.237 1.83 1.225 1.213 1.838 2.915 1.838 5.106 0 1.59-.269 2.897-.808 3.918a5.724 5.724 0 0 1-2.32 2.377c-1.01.564-2.27.845-3.78.845-1.535 0-2.807-.244-3.816-.733-1.003-.49-1.817-1.263-2.442-2.322-.625-1.058-.938-2.383-.938-3.974zm4.207.019c0 1.374.253 2.361.76 2.962.515.6 1.211.9 2.09.9.904 0 1.603-.293 2.098-.882.496-.588.743-1.643.743-3.166 0-1.281-.26-2.216-.78-2.804-.514-.594-1.213-.891-2.098-.891-.848 0-1.53.3-2.043.9-.514.6-.77 1.594-.77 2.981z" fill="#fff"/></svg><svg fill="none" viewBox="0 0 74 15" id="logo__techno--light" xmlns="http://www.w3.org/2000/svg"><path d="M.523.643H13.31v3.361h-4.29v10.251H4.813V4.005H.523V.642zM15.212.643h11.272V3.55h-7.057v2.164h6.546v2.776h-6.546v2.683h7.261v3.083H15.212V.643zM28.025.643h4.634l2.414 4.188 2.34-4.188h4.586l-4.234 6.593 4.633 7.019h-4.726L34.99 9.882l-2.692 4.373h-4.699l4.699-7.094L28.025.643zM43.782.643h4.206v4.763h4.596V.643h4.225v13.612h-4.225V8.749h-4.596v5.506h-4.206V.643zM59.074 7.458c0-2.222.62-3.952 1.857-5.19C62.17 1.03 63.893.411 66.103.411c2.266 0 4.011.61 5.237 1.83 1.225 1.213 1.838 2.915 1.838 5.106 0 1.59-.269 2.897-.808 3.918a5.724 5.724 0 0 1-2.32 2.377c-1.01.564-2.27.845-3.78.845-1.535 0-2.807-.244-3.816-.733-1.003-.49-1.817-1.263-2.442-2.322-.625-1.058-.938-2.383-.938-3.974zm4.207.019c0 1.374.253 2.361.76 2.962.515.6 1.211.9 2.09.9.904 0 1.603-.293 2.098-.882.496-.588.743-1.643.743-3.166 0-1.281-.26-2.216-.78-2.804-.514-.594-1.213-.891-2.098-.891-.848 0-1.53.3-2.043.9-.514.6-.77 1.594-.77 2.981z" fill="#fff"/></svg></svg>