<svg width="74" height="8" viewBox="0 0 74 8" fill="none" xmlns="http://www.w3.org/2000/svg">
<path d="M0.53812 2.14564H1.17271V5.0013L2.93194 2.14564H3.61588V5.88973H2.98129V3.0517L1.22207 5.88973H0.53812V2.14564Z" fill="white"/>
<path d="M4.57482 2.14564H5.20941V3.70392H6.96863V2.14564H7.60322V5.88973H6.96863V4.22922H5.20941V5.88973H4.57482V2.14564Z" fill="white"/>
<path d="M9.06278 2.14564H11.6717V5.36795H12.0771V6.9509H11.5553V5.88973H8.60799V6.9509H8.08622V5.36795H8.42114C8.8677 4.76157 9.08158 3.68746 9.06278 2.14564ZM9.59161 2.67094C9.5446 3.88607 9.35657 4.78507 9.02753 5.36795H11.0406V2.67094H9.59161Z" fill="white"/>
<path d="M12.7505 7.33166L12.6799 6.73585C12.8186 6.77345 12.9397 6.79226 13.0431 6.79226C13.1841 6.79226 13.2969 6.76875 13.3815 6.72175C13.4661 6.67474 13.5355 6.60893 13.5895 6.52432C13.6295 6.46086 13.6941 6.30339 13.7834 6.0519C13.7952 6.01665 13.814 5.96494 13.8398 5.89678L12.4191 2.14564H13.103L13.8821 4.31383C13.9832 4.58882 14.0737 4.87791 14.1536 5.1811C14.2265 4.88966 14.3134 4.60527 14.4145 4.32793L15.2148 2.14564H15.8494L14.4251 5.95319C14.2723 6.36449 14.1536 6.64771 14.069 6.80283C13.9562 7.01201 13.8269 7.16478 13.6812 7.26115C13.5355 7.35986 13.3615 7.40922 13.1594 7.40922C13.0372 7.40922 12.9009 7.38336 12.7505 7.33166Z" fill="white"/>
<path d="M18.7473 4.51831L19.3713 4.59939C19.3032 5.0295 19.1281 5.36678 18.846 5.61121C18.5664 5.8533 18.222 5.97434 17.8131 5.97434C17.3007 5.97434 16.8882 5.80747 16.5756 5.47372C16.2654 5.13762 16.1103 4.65698 16.1103 4.03179C16.1103 3.62753 16.1772 3.27381 16.3112 2.97061C16.4452 2.66742 16.6485 2.44061 16.9211 2.29019C17.1961 2.13742 17.4946 2.06103 17.8166 2.06103C18.2232 2.06103 18.5558 2.16445 18.8143 2.37128C19.0729 2.57576 19.2386 2.8672 19.3114 3.2456L18.6945 3.34079C18.6357 3.0893 18.5311 2.9001 18.3807 2.77318C18.2326 2.64627 18.0528 2.58281 17.8413 2.58281C17.5216 2.58281 17.2619 2.69797 17.0621 2.92831C16.8624 3.15629 16.7625 3.51824 16.7625 4.01416C16.7625 4.51713 16.8588 4.88261 17.0516 5.11059C17.2443 5.33857 17.4958 5.45256 17.806 5.45256C18.0552 5.45256 18.2632 5.37618 18.43 5.22341C18.5969 5.07064 18.7027 4.8356 18.7473 4.51831Z" fill="white"/>
<path d="M19.5723 2.14564H22.6148V2.67094H21.4091V5.88973H20.778V2.67094H19.5723V2.14564Z" fill="white"/>
<path d="M23.2212 7.32461V2.14564H23.7994V2.63216C23.9357 2.44179 24.0896 2.29959 24.2612 2.20558C24.4328 2.10921 24.6408 2.06103 24.8852 2.06103C25.2049 2.06103 25.4869 2.14329 25.7313 2.30782C25.9758 2.47234 26.1603 2.70502 26.2849 3.00587C26.4094 3.30436 26.4717 3.63223 26.4717 3.98948C26.4717 4.37259 26.4024 4.71809 26.2637 5.02598C26.1274 5.33152 25.9276 5.56656 25.6644 5.73108C25.4035 5.89325 25.1285 5.97434 24.8394 5.97434C24.6279 5.97434 24.4375 5.92968 24.2683 5.84037C24.1014 5.75106 23.9639 5.63824 23.8558 5.50192V7.32461H23.2212ZM23.7959 4.03884C23.7959 4.52066 23.8934 4.87673 24.0885 5.10707C24.2835 5.3374 24.5198 5.45256 24.7971 5.45256C25.0791 5.45256 25.32 5.33387 25.5198 5.09649C25.7219 4.85676 25.823 4.48658 25.823 3.98596C25.823 3.50884 25.7243 3.15159 25.5269 2.9142C25.3318 2.67682 25.0979 2.55813 24.8253 2.55813C24.555 2.55813 24.3153 2.68505 24.1061 2.93888C23.8993 3.19037 23.7959 3.55702 23.7959 4.03884Z" fill="white"/>
<path d="M27.2403 2.14564H27.8749V5.0013L29.6341 2.14564H30.318V5.88973H29.6834V3.0517L27.9242 5.88973H27.2403V2.14564Z" fill="white"/>
<path d="M33.7166 5.42789C33.4816 5.62767 33.2548 5.76868 33.0362 5.85095C32.82 5.93321 32.5873 5.97434 32.3381 5.97434C31.9268 5.97434 31.6107 5.87445 31.3898 5.67467C31.1688 5.47254 31.0584 5.21518 31.0584 4.90259C31.0584 4.71926 31.0995 4.55239 31.1818 4.40197C31.2664 4.24919 31.3757 4.12698 31.5096 4.03531C31.646 3.94365 31.7987 3.87432 31.968 3.82731C32.0925 3.7944 32.2806 3.76267 32.532 3.73212C33.0444 3.67101 33.4216 3.59815 33.6637 3.51354C33.6661 3.42658 33.6673 3.37134 33.6673 3.34784C33.6673 3.0893 33.6073 2.90715 33.4875 2.80139C33.3253 2.65802 33.0844 2.58633 32.7647 2.58633C32.4662 2.58633 32.2453 2.63922 32.1019 2.74498C31.9609 2.84839 31.8563 3.0329 31.7882 3.29848L31.1677 3.21387C31.2241 2.94828 31.3169 2.7344 31.4462 2.57223C31.5755 2.40771 31.7623 2.28196 32.0067 2.195C32.2512 2.10569 32.5344 2.06103 32.8564 2.06103C33.176 2.06103 33.4357 2.09864 33.6355 2.17385C33.8353 2.24906 33.9822 2.34425 34.0762 2.45941C34.1702 2.57223 34.236 2.7156 34.2736 2.88953C34.2948 2.99764 34.3054 3.19272 34.3054 3.47476V4.32088C34.3054 4.91081 34.3183 5.28452 34.3442 5.44199C34.3724 5.59711 34.4264 5.74636 34.5063 5.88973H33.8435C33.7777 5.75811 33.7354 5.60416 33.7166 5.42789ZM33.6637 4.01063C33.4334 4.10465 33.0879 4.18456 32.6272 4.25037C32.3663 4.28797 32.1818 4.33028 32.0737 4.37729C31.9656 4.42429 31.8822 4.49363 31.8234 4.58529C31.7647 4.6746 31.7353 4.77449 31.7353 4.88496C31.7353 5.05418 31.7987 5.1952 31.9257 5.30802C32.0549 5.42084 32.243 5.47724 32.4897 5.47724C32.7342 5.47724 32.9516 5.42436 33.142 5.3186C33.3323 5.21048 33.4722 5.06358 33.5615 4.87791C33.6296 4.73454 33.6637 4.52301 33.6637 4.24332V4.01063Z" fill="white"/>
<path d="M35.6028 2.14564H38.5501V5.88973H37.919V2.67094H36.2373V4.53593C36.2373 4.97075 36.2232 5.25749 36.195 5.39616C36.1668 5.53483 36.0893 5.65587 35.9624 5.75928C35.8354 5.8627 35.6521 5.91441 35.4124 5.91441C35.2643 5.91441 35.0939 5.905 34.9012 5.8862V5.35738H35.1797C35.3113 5.35738 35.4053 5.34445 35.4617 5.3186C35.5181 5.29039 35.5557 5.24691 35.5746 5.18815C35.5934 5.12939 35.6028 4.93784 35.6028 4.6135V2.14564Z" fill="white"/>
<path d="M39.4984 2.14564H40.133V3.60873H40.9368C41.461 3.60873 41.864 3.71097 42.1461 3.91545C42.4305 4.11758 42.5727 4.39726 42.5727 4.75452C42.5727 5.06711 42.454 5.33505 42.2166 5.55833C41.9816 5.77926 41.6043 5.88973 41.0849 5.88973H39.4984V2.14564ZM40.133 5.36795H40.7993C41.2012 5.36795 41.488 5.3186 41.6596 5.21988C41.8311 5.12117 41.9169 4.96722 41.9169 4.75804C41.9169 4.59587 41.8535 4.45132 41.7265 4.3244C41.5996 4.19749 41.3188 4.13403 40.884 4.13403H40.133V5.36795Z" fill="white"/>
<path d="M43.2778 2.14564H43.9124V3.70392H45.6716V2.14564H46.3062V5.88973H45.6716V4.22922H43.9124V5.88973H43.2778V2.14564Z" fill="white"/>
<path d="M50.8294 2.14564H51.464V5.88973H50.8294V2.14564ZM47.2792 2.14564H47.9138V3.60873H48.7176C49.2417 3.60873 49.6448 3.71097 49.9269 3.91545C50.2113 4.11758 50.3535 4.39726 50.3535 4.75452C50.3535 5.06711 50.2348 5.33505 49.9974 5.55833C49.7623 5.77926 49.3851 5.88973 48.8657 5.88973H47.2792V2.14564ZM47.9138 5.36795H48.5801C48.982 5.36795 49.2688 5.3186 49.4403 5.21988C49.6119 5.12117 49.6977 4.96722 49.6977 4.75804C49.6977 4.59587 49.6342 4.45132 49.5073 4.3244C49.3804 4.19749 49.0995 4.13403 48.6647 4.13403H47.9138V5.36795Z" fill="white"/>
<path d="M52.4546 2.14564H53.0892V5.0013L54.8485 2.14564H55.5324V5.88973H54.8978V3.0517L53.1386 5.88973H52.4546V2.14564ZM54.6581 0.728394H55.0917C55.0565 1.02219 54.9484 1.24782 54.7674 1.40529C54.5887 1.56276 54.3502 1.6415 54.0517 1.6415C53.7509 1.6415 53.5099 1.56394 53.329 1.40882C53.1503 1.25134 53.0434 1.02454 53.0082 0.728394H53.4418C53.4747 0.888216 53.5393 1.00808 53.6357 1.08799C53.7344 1.16556 53.866 1.20434 54.0305 1.20434C54.2209 1.20434 54.3643 1.16673 54.4607 1.09152C54.5594 1.01396 54.6252 0.892917 54.6581 0.728394Z" fill="white"/>
<path d="M58.5009 2.14564H61.4553V5.88973H60.8207V2.67094H59.1355V5.88973H58.5009V2.14564Z" fill="white"/>
<path d="M64.8538 5.42789C64.6188 5.62767 64.392 5.76868 64.1734 5.85095C63.9572 5.93321 63.7245 5.97434 63.4754 5.97434C63.0641 5.97434 62.7479 5.87445 62.527 5.67467C62.3061 5.47254 62.1956 5.21518 62.1956 4.90259C62.1956 4.71926 62.2367 4.55239 62.319 4.40197C62.4036 4.24919 62.5129 4.12698 62.6469 4.03531C62.7832 3.94365 62.936 3.87432 63.1052 3.82731C63.2298 3.7944 63.4178 3.76267 63.6693 3.73212C64.1816 3.67101 64.5589 3.59815 64.801 3.51354C64.8033 3.42658 64.8045 3.37134 64.8045 3.34784C64.8045 3.0893 64.7445 2.90715 64.6247 2.80139C64.4625 2.65802 64.2216 2.58633 63.902 2.58633C63.6035 2.58633 63.3825 2.63922 63.2392 2.74498C63.0981 2.84839 62.9935 3.0329 62.9254 3.29848L62.3049 3.21387C62.3613 2.94828 62.4541 2.7344 62.5834 2.57223C62.7127 2.40771 62.8995 2.28196 63.144 2.195C63.3884 2.10569 63.6716 2.06103 63.9936 2.06103C64.3133 2.06103 64.573 2.09864 64.7727 2.17385C64.9725 2.24906 65.1194 2.34425 65.2134 2.45941C65.3074 2.57223 65.3733 2.7156 65.4109 2.88953C65.432 2.99764 65.4426 3.19272 65.4426 3.47476V4.32088C65.4426 4.91081 65.4555 5.28452 65.4814 5.44199C65.5096 5.59711 65.5636 5.74636 65.6436 5.88973H64.9808C64.9149 5.75811 64.8726 5.60416 64.8538 5.42789ZM64.801 4.01063C64.5706 4.10465 64.2251 4.18456 63.7645 4.25037C63.5036 4.28797 63.3191 4.33028 63.211 4.37729C63.1028 4.42429 63.0194 4.49363 62.9606 4.58529C62.9019 4.6746 62.8725 4.77449 62.8725 4.88496C62.8725 5.05418 62.936 5.1952 63.0629 5.30802C63.1922 5.42084 63.3802 5.47724 63.627 5.47724C63.8714 5.47724 64.0888 5.42436 64.2792 5.3186C64.4696 5.21048 64.6094 5.06358 64.6987 4.87791C64.7669 4.73454 64.801 4.52301 64.801 4.24332V4.01063Z" fill="white"/>
<path d="M66.4297 7.32461V2.14564H67.0079V2.63216C67.1442 2.44179 67.2982 2.29959 67.4698 2.20558C67.6413 2.10921 67.8493 2.06103 68.0938 2.06103C68.4134 2.06103 68.6955 2.14329 68.9399 2.30782C69.1843 2.47234 69.3688 2.70502 69.4934 3.00587C69.618 3.30436 69.6802 3.63223 69.6802 3.98948C69.6802 4.37259 69.6109 4.71809 69.4722 5.02598C69.3359 5.33152 69.1361 5.56656 68.8729 5.73108C68.612 5.89325 68.337 5.97434 68.0479 5.97434C67.8364 5.97434 67.646 5.92968 67.4768 5.84037C67.3099 5.75106 67.1724 5.63824 67.0643 5.50192V7.32461H66.4297ZM67.0044 4.03884C67.0044 4.52066 67.1019 4.87673 67.297 5.10707C67.4921 5.3374 67.7283 5.45256 68.0056 5.45256C68.2877 5.45256 68.5286 5.33387 68.7284 5.09649C68.9305 4.85676 69.0316 4.48658 69.0316 3.98596C69.0316 3.50884 68.9328 3.15159 68.7354 2.9142C68.5403 2.67682 68.3065 2.55813 68.0338 2.55813C67.7635 2.55813 67.5238 2.68505 67.3146 2.93888C67.1078 3.19037 67.0044 3.55702 67.0044 4.03884Z" fill="white"/>
<path d="M70.4453 2.14564H71.0799V3.76385C71.282 3.76385 71.423 3.72507 71.5029 3.64751C71.5852 3.56995 71.7051 3.34432 71.8625 2.97061C71.9871 2.67447 72.0882 2.47939 72.1657 2.38538C72.2433 2.29137 72.3326 2.22791 72.4337 2.195C72.5347 2.1621 72.6969 2.14564 72.9202 2.14564H73.0471V2.67094L72.8708 2.66742C72.704 2.66742 72.597 2.6921 72.55 2.74145C72.5006 2.79316 72.4254 2.94711 72.3244 3.2033C72.228 3.44773 72.1399 3.61695 72.06 3.71097C71.98 3.80498 71.8567 3.89077 71.6898 3.96833C71.9624 4.04119 72.2304 4.29503 72.4936 4.72984L73.1881 5.88973H72.4901L71.8132 4.72984C71.6745 4.49715 71.5535 4.34438 71.45 4.27152C71.3466 4.19631 71.2232 4.15871 71.0799 4.15871V5.88973H70.4453V2.14564Z" fill="white"/>
</svg>
