<svg width="66" height="15" viewBox="0 0 66 15" fill="none" xmlns="http://www.w3.org/2000/svg">
<path d="M0.113777 0.643265H10.8194V14.255H9.00879V2.24957H1.91506V14.255H0.113777V0.643265Z" fill="white"/>
<path d="M13.2149 7.62557C13.2149 5.36622 13.8215 3.59898 15.0347 2.32385C16.248 1.04252 17.814 0.401855 19.7329 0.401855C20.9895 0.401855 22.1223 0.70207 23.1312 1.3025C24.1402 1.90293 24.9078 2.74167 25.4339 3.81873C25.9663 4.8896 26.2324 6.10593 26.2324 7.46773C26.2324 8.84809 25.9539 10.083 25.3968 11.1724C24.8397 12.2619 24.0505 13.0882 23.0291 13.6515C22.0078 14.2086 20.9059 14.4872 19.7237 14.4872C18.4423 14.4872 17.2972 14.1777 16.2882 13.5587C15.2792 12.9397 14.5148 12.0947 13.9948 11.0239C13.4749 9.95301 13.2149 8.82024 13.2149 7.62557ZM15.0719 7.65343C15.0719 9.29377 15.5114 10.5875 16.3903 11.5345C17.2755 12.4754 18.3835 12.9459 19.7144 12.9459C21.07 12.9459 22.1842 12.4692 23.057 11.516C23.9359 10.5627 24.3754 9.21021 24.3754 7.45844C24.3754 6.35043 24.1866 5.3848 23.809 4.56153C23.4376 3.73207 22.8898 3.0914 22.1656 2.63954C21.4476 2.18148 20.6398 1.95245 19.7422 1.95245C18.4671 1.95245 17.3684 2.39194 16.4461 3.27091C15.5299 4.1437 15.0719 5.60454 15.0719 7.65343Z" fill="white"/>
<path d="M29.3336 0.643265H37.8572V14.255H36.0559V2.24957H31.1349V9.25973C31.1349 10.6834 31.0668 11.7264 30.9306 12.3888C30.8006 13.0511 30.5221 13.568 30.095 13.9394C29.6679 14.3046 29.1262 14.4872 28.4701 14.4872C28.0739 14.4872 27.5973 14.4129 27.0402 14.2643L27.3466 12.6673C27.6437 12.7911 27.8975 12.853 28.108 12.853C28.5165 12.853 28.8229 12.7014 29.0272 12.3981C29.2315 12.0886 29.3336 11.3643 29.3336 10.2254V0.643265Z" fill="white"/>
<path d="M40.847 0.643265H42.4811V11.4231L49.7234 0.643265H51.534V14.255H49.8998V3.50304L42.6483 14.255H40.847V0.643265Z" fill="white"/>
<path d="M64.1987 9.48257L66 9.93753C65.6224 11.4169 64.9415 12.5466 63.9573 13.3265C62.9793 14.1003 61.7815 14.4872 60.364 14.4872C58.897 14.4872 57.7023 14.1901 56.78 13.5958C55.8639 12.9954 55.1644 12.1288 54.6816 10.996C54.205 9.86325 53.9667 8.64692 53.9667 7.34702C53.9667 5.92951 54.2359 4.69461 54.7745 3.64231C55.3192 2.58383 56.0898 1.78222 57.0864 1.2375C58.0892 0.686595 59.191 0.41114 60.3919 0.41114C61.7537 0.41114 62.8988 0.75778 63.8273 1.45106C64.7558 2.14434 65.4027 3.11926 65.7679 4.37583L63.9944 4.79365C63.6788 3.80325 63.2207 3.08212 62.6203 2.63025C62.0198 2.17838 61.2647 1.95245 60.3547 1.95245C59.3086 1.95245 58.4327 2.20314 57.7271 2.70453C57.0276 3.20592 56.5355 3.88063 56.2508 4.72866C55.966 5.57049 55.8237 6.44019 55.8237 7.33774C55.8237 8.49526 55.9908 9.50733 56.3251 10.3739C56.6655 11.2343 57.1916 11.8781 57.9035 12.3052C58.6153 12.7323 59.386 12.9459 60.2155 12.9459C61.2244 12.9459 62.0786 12.6549 62.7781 12.0731C63.4776 11.4912 63.9511 10.6277 64.1987 9.48257Z" fill="white"/>
</svg>
